# xmcd CD database file
#
# Track frame offsets:
#	182
#	8825
#	24967
#	37470
#	52815
#	66502
#	80447
#	90225
#	105272
#	116385
#	125582
#	138990
#	152935
#	166317
#	175337
#	185300
#	213510
#	224695
#	235220
#
# Disc length: 3290 seconds
#
# Revision: 3
# Processed by: cddbd v1.4PL0 Copyright (c) Steve Scherf et al.
# Submitted via: CDex 1.40Release
#
DISCID=020cd813
DTITLE=Ray Charles - The Genius Hits The Road
DYEAR=1900
DGENRE=
TTITLE0=Alabamy Bound
TTITLE1=Georgia On My Mind
TTITLE2=Basin Street Blues
TTITLE3=Mississippi Mud
TTITLE4=Moonlight In Vermont
TTITLE5=New York's My Home
TTITLE6=California Here I Come
TTITLE7=Moon Over Miami
TTITLE8=Deep In The Heart Of Texas
TTITLE9=Carry Me Back To Old Virginny
TTITLE10=Blue Hawaii
TTITLE11=Chattanooga Choo-choo
TTITLE12=Sentimental Journey
TTITLE13=Hit The Road Jack
TTITLE14=Blue Moon Of Kentucky
TTITLE15=Rainy Night In Georgia
TTITLE16=I'm Movin' On
TTITLE17=Swanee River Rok
TTITLE18=Lonely Avenue
EXTD=
EXTT0=
EXTT1=
EXTT2=
EXTT3=
EXTT4=
EXTT5=
EXTT6=
EXTT7=
EXTT8=
EXTT9=
EXTT10=
EXTT11=
EXTT12=
EXTT13=
EXTT14=
EXTT15=
EXTT16=
EXTT17=
EXTT18=
PLAYORDER=
